<?xml version="1.0" encoding="utf-8"?>
<!-- Generator: Adobe Illustrator 25.0.0, SVG Export Plug-In . SVG Version: 6.00 Build 0)  -->
<svg version="1.1" id="Layer_1" xmlns="http://www.w3.org/2000/svg" xmlns:xlink="http://www.w3.org/1999/xlink" x="0px" y="0px"
	 viewBox="0 0 1920 1080" style="enable-background:new 0 0 1920 1080;" xml:space="preserve">
<style type="text/css">
	.st0{fill:#FFFFFF;}
</style>
<rect y="529.8" class="st0" width="55.8" height="152.5"/>
<polygon class="st0" points="134.7,529.8 94.2,593.7 94.2,529.8 "/>
<polygon class="st0" points="196.4,689 129.6,620.4 195.5,523.1 "/>
<polygon class="st0" points="129.6,682.1 94.2,682.1 94.2,624.8 "/>
<rect x="235" y="529.8" class="st0" width="22.3" height="152.5"/>
<polygon class="st0" points="332.1,681.8 298.6,681.8 299.5,567.8 "/>
<polygon class="st0" points="367.4,682.1 336.2,682.1 366.6,568.1 "/>
<rect x="410.6" y="529.8" class="st0" width="22.3" height="152.5"/>
<rect x="476" y="562.6" class="st0" width="23.8" height="41.7"/>
<rect x="476" y="625.8" class="st0" width="23.8" height="56.5"/>
<rect x="541.5" y="529.8" class="st0" width="32" height="152.1"/>
<rect x="617.7" y="467.4" class="st0" width="50.2" height="214.5"/>
<rect x="714.7" y="418.3" class="st0" width="44.7" height="263.6"/>
<rect x="811.7" y="418.3" class="st0" width="59.3" height="263.6"/>
<rect y="503.1" class="st0" width="621.8" height="29.3"/>
<rect x="655.7" y="467.4" class="st0" width="65.8" height="17.1"/>
<rect x="750" y="418.3" class="st0" width="70.7" height="23.1"/>
<polygon class="st0" points="348.8,529.8 332.1,567.8 318.3,529.8 "/>
</svg>
