<?xml version="1.0" encoding="utf-8"?>
<!-- Generator: Adobe Illustrator 25.0.0, SVG Export Plug-In . SVG Version: 6.00 Build 0)  -->
<svg version="1.1" id="Layer_1" xmlns="http://www.w3.org/2000/svg" xmlns:xlink="http://www.w3.org/1999/xlink" x="0px" y="0px"
	 viewBox="0 0 1920 1080" style="enable-background:new 0 0 1920 1080;" xml:space="preserve">
<style type="text/css">
	.st0{fill:#FFFFFF;}
</style>
<g>
	<path class="st0" d="M1678,1321.5c-64.5,0-125.2-25.1-170.8-70.7c-45.6-45.6-70.7-106.3-70.7-170.8s25.1-125.2,70.7-170.8
		c45.6-45.6,106.3-70.7,170.8-70.7s125.2,25.1,170.8,70.7c45.6,45.6,70.7,106.3,70.7,170.8s-25.1,125.2-70.7,170.8
		C1803.2,1296.4,1742.5,1321.5,1678,1321.5z M1678,879.5c-110.6,0-200.5,89.9-200.5,200.5s89.9,200.5,200.5,200.5
		s200.5-89.9,200.5-200.5S1788.6,879.5,1678,879.5z"/>
	<path d="M1678,839c32.5,0,64.1,6.4,93.8,18.9c28.7,12.1,54.5,29.5,76.6,51.6s39.5,47.9,51.6,76.6c12.6,29.7,18.9,61.3,18.9,93.8
		s-6.4,64.1-18.9,93.8c-12.1,28.7-29.5,54.5-51.6,76.6c-22.1,22.1-47.9,39.5-76.6,51.6c-29.7,12.6-61.3,18.9-93.8,18.9
		s-64.1-6.4-93.8-18.9c-28.7-12.1-54.5-29.5-76.6-51.6c-22.1-22.1-39.5-47.9-51.6-76.6c-12.6-29.7-18.9-61.3-18.9-93.8
		s6.4-64.1,18.9-93.8c12.1-28.7,29.5-54.5,51.6-76.6s47.9-39.5,76.6-51.6C1613.9,845.4,1645.5,839,1678,839 M1678,1281
		c110.8,0,201-90.2,201-201s-90.2-201-201-201s-201,90.2-201,201S1567.2,1281,1678,1281 M1678,838c-133.7,0-242,108.3-242,242
		s108.3,242,242,242s242-108.3,242-242S1811.7,838,1678,838L1678,838z M1678,1280c-110.5,0-200-89.5-200-200s89.5-200,200-200
		s200,89.5,200,200S1788.5,1280,1678,1280L1678,1280z"/>
</g>
</svg>
