<?xml version="1.0" encoding="utf-8"?>
<!-- Generator: Adobe Illustrator 25.0.0, SVG Export Plug-In . SVG Version: 6.00 Build 0)  -->
<svg version="1.1" id="Layer_1" xmlns="http://www.w3.org/2000/svg" xmlns:xlink="http://www.w3.org/1999/xlink" x="0px" y="0px"
	 viewBox="0 0 1920 1080" style="enable-background:new 0 0 1920 1080;" xml:space="preserve">
<style type="text/css">
	.st0{fill:#FFFFFF;}
</style>
<g>
	<path class="st0" d="M1547,1079.5c-64.5,0-125.2-25.1-170.8-70.7s-70.7-106.3-70.7-170.8s25.1-125.2,70.7-170.8
		s106.3-70.7,170.8-70.7s125.2,25.1,170.8,70.7s70.7,106.3,70.7,170.8s-25.1,125.2-70.7,170.8S1611.5,1079.5,1547,1079.5z"/>
	<path d="M1547,597c32.5,0,64.1,6.4,93.8,18.9c28.7,12.1,54.5,29.5,76.6,51.6s39.5,47.9,51.6,76.6c12.6,29.7,18.9,61.3,18.9,93.8
		s-6.4,64.1-18.9,93.8c-12.1,28.7-29.5,54.5-51.6,76.6c-22.1,22.1-47.9,39.5-76.6,51.6c-29.7,12.6-61.3,18.9-93.8,18.9
		s-64.1-6.4-93.8-18.9c-28.7-12.1-54.5-29.5-76.6-51.6c-22.1-22.1-39.5-47.9-51.6-76.6c-12.6-29.7-18.9-61.3-18.9-93.8
		s6.4-64.1,18.9-93.8c12.1-28.7,29.5-54.5,51.6-76.6s47.9-39.5,76.6-51.6C1482.9,603.4,1514.5,597,1547,597 M1547,596
		c-133.7,0-242,108.3-242,242s108.3,242,242,242s242-108.3,242-242S1680.7,596,1547,596L1547,596z"/>
</g>
<g>
	<ellipse class="st0" cx="1555" cy="851.5" rx="144.5" ry="157"/>
	<path d="M1555,695c38.4,0,74.6,16.3,101.8,45.8c27.2,29.6,42.2,68.9,42.2,110.7s-15,81.1-42.2,110.7
		c-27.2,29.5-63.3,45.8-101.8,45.8s-74.6-16.3-101.8-45.8c-27.2-29.6-42.2-68.9-42.2-110.7s15-81.1,42.2-110.7
		C1480.4,711.3,1516.6,695,1555,695 M1555,694c-80.1,0-145,70.5-145,157.5s64.9,157.5,145,157.5s145-70.5,145-157.5
		S1635.1,694,1555,694L1555,694z"/>
</g>
</svg>
